<?xml version="1.0" encoding="utf-8"?>
<!-- Generator: Adobe Illustrator 21.0.0, SVG Export Plug-In . SVG Version: 6.00 Build 0)  -->
<svg version="1.1" id="图层_1" xmlns="http://www.w3.org/2000/svg" xmlns:xlink="http://www.w3.org/1999/xlink" x="0px" y="0px"
	 viewBox="0 0 200 199.8" style="enable-background:new 0 0 200 199.8;" xml:space="preserve">
<style type="text/css">
	.st0{fill:#008BEA;}
</style>
<path class="st0" d="M180.7,78.2c1.5,8.2,1.8,16.6,1,24.9l-4.5-5.5c-0.8,0.4-1.6,0.5-2.5,0.5L158.4,80c0-3.3,2.7-6.1,6.1-6.1
	l8.5-0.1c-11.1-43.5-55.4-69.7-98.8-58.6c-29,7.4-51.5,30.1-58.7,59.2l-5-6.6C21.9,31.2,55.9,6.2,94.3,6.2
	C135.8,6.2,171.5,39.5,180.7,78.2L180.7,78.2z M15.3,93l16.1,18.1c0,3.3-2.7,6.1-6.1,6.1l-8.8,0.1c12.8,43,58.1,67.4,101.1,54.6
	c26.9-8,47.8-29.4,55.1-56.6l5,6.1c-11.8,36-45.5,60.4-83.4,60.4c-39.5,0-74.1-26.4-84.6-64.5l-0.4-1.5C6.8,106,6,95.9,6.9,85.9
	l5.8,7.7C13.5,93.2,14.4,93,15.3,93L15.3,93z M9.2,11.8V19V11.8z M0,22.7h6.1H0z M0,188.9h6.1H0z M9.2,199.8v-7.3V199.8z
	 M179.2,11.8V19V11.8z M188.3,22.7h-6.1H188.3z M188.3,188.9h-6.1H188.3z M179.2,199.8v-7.3V199.8z"/>
<path class="st0" d="M67.7,70.3H121v-7.8H67.7V70.3z M67.7,88.7H121v-7.8H67.7V88.7L67.7,88.7z M67.7,125.6H97v-7.8H67.7V125.6
	L67.7,125.6z M67.7,107.2H97v-7.8H67.7V107.2z M131.6,122.7h-12.4c-5.2,0-9.4,4.2-9.4,9.4l0,0v12.4L131.6,122.7z M141.9,121.7
	c0,0.1,0,0.1,0,0.2c-0.1,0.3-0.2,0.6-0.5,0.9l-32.2,32.1c-0.2,0.2-0.5,0.4-0.9,0.5H60.5c-7.7,0-13.9-6.2-13.9-13.8v-95
	c0-7.7,6.2-13.9,13.9-13.9H128c7.7,0,13.9,6.2,13.9,13.9l0,0v74.9C142,121.5,142,121.6,141.9,121.7L141.9,121.7L141.9,121.7z
	 M125.7,40.5H62.9c-5.2,0-9.4,4.2-9.4,9.4v88.4c0,5.2,4.2,9.4,9.4,9.4h40.3v-16.9c0-7.1,7.9-15,15-15h16.9v-66
	C135.1,44.6,130.9,40.4,125.7,40.5L125.7,40.5L125.7,40.5L125.7,40.5z"/>
</svg>
