<?xml version="1.0" encoding="utf-8"?>
<!-- Generator: Adobe Illustrator 21.0.0, SVG Export Plug-In . SVG Version: 6.00 Build 0)  -->
<svg version="1.1" id="图层_1" xmlns="http://www.w3.org/2000/svg" xmlns:xlink="http://www.w3.org/1999/xlink" x="0px" y="0px"
	 viewBox="0 0 200 200" style="enable-background:new 0 0 200 200;" xml:space="preserve">
<style type="text/css">
	.st0{fill:#FFAA00;}
</style>
<path class="st0" d="M100,200C44.8,200,0,155.2,0,100C0,44.8,44.8,0,100,0c55.2,0,100,44.8,100,100C200,155.2,155.2,200,100,200z
	 M100,7C48.7,7,7,48.7,7,100c0,51.3,41.7,93,93,93c51.3,0,93-41.7,93-93C193,48.7,151.3,7,100,7z M135.2,140.9c-1.3,0-2.6,0.8-3,2.1
	l-5.9,16.2l-19.5-35.6c10.1-1.5,19-6.4,25.6-13.5l19.1,34.9l-15.5-4C135.8,141,135.5,140.9,135.2,140.9L135.2,140.9z M129.5,125.6
	c-2.5,1.6-5.2,3-7.9,4.2l3.3,6.1c1.9-2.4,4.6-4.1,7.7-4.7L129.5,125.6L129.5,125.6z M100.5,115.7C79.8,115.7,63,98.9,63,78.2
	c0-20.7,16.8-37.5,37.5-37.5c20.7,0,37.5,16.8,37.5,37.5C138,98.9,121.2,115.7,100.5,115.7L100.5,115.7z M100.5,47.7
	C83.7,47.7,70,61.4,70,78.2c0,16.8,13.7,30.5,30.5,30.5c16.8,0,30.5-13.7,30.5-30.5C130.9,61.4,117.3,47.7,100.5,47.7z M93.3,123.6
	l-19.6,35.7L67.8,143c-0.6-1.6-2.2-2.4-3.8-2l-15.5,4L68,109.5C74.4,116.8,83.3,121.9,93.3,123.6L93.3,123.6z M75.1,135.9l3.5-6.4
	c-2.7-1.2-5.4-2.7-7.9-4.4l-3.3,6C70.5,131.8,73.2,133.5,75.1,135.9L75.1,135.9z"/>
</svg>
