<?xml version="1.0" encoding="utf-8"?>
<!-- Generator: Adobe Illustrator 21.0.0, SVG Export Plug-In . SVG Version: 6.00 Build 0)  -->
<svg version="1.1" id="图层_1" xmlns="http://www.w3.org/2000/svg" xmlns:xlink="http://www.w3.org/1999/xlink" x="0px" y="0px"
	 viewBox="0 0 200 200" style="enable-background:new 0 0 200 200;" xml:space="preserve">
<style type="text/css">
	.st0{fill:#30CEF2;}
</style>
<path class="st0" d="M100,200C44.8,200,0,155.2,0,100S44.8,0,100,0s100,44.8,100,100S155.2,200,100,200z M100.2,8.5
	c-50.7,0-91.8,41.1-91.8,91.8S49.6,192,100.2,192s91.8-41.1,91.8-91.8S150.9,8.5,100.2,8.5z M87.2,142.7c-0.5,0.6-1.2,0.9-2,1.1
	l-24.4,6.1c-2.3,0.6-4.6-0.8-5.2-3.1c-0.2-0.7-0.2-1.4,0-2.1l6.1-24.4c0.2-0.8,0.6-1.4,1.1-2l57.8-57.9c6.5-6.5,17.9-6.5,24.4,0
	c3.2,3.2,5.1,7.6,5,12.2c0,4.6-1.8,8.9-5,12.2L87.2,142.7L87.2,142.7z M117.6,75.7l-47.8,47.9l-4.1,16.3l16.2-4.1l47.8-47.9
	L117.6,75.7L117.6,75.7z M138.9,66.5c-3.2-3.3-8.9-3.3-12.2,0l-3,3l12.2,12.2l3-3c1.6-1.6,2.5-3.8,2.5-6.1S140.5,68.1,138.9,66.5z"
	/>
</svg>
