<?xml version="1.0" encoding="utf-8"?>
<!-- Generator: Adobe Illustrator 21.0.0, SVG Export Plug-In . SVG Version: 6.00 Build 0)  -->
<svg version="1.1" id="图层_1" xmlns="http://www.w3.org/2000/svg" xmlns:xlink="http://www.w3.org/1999/xlink" x="0px" y="0px"
	 viewBox="0 0 200 193.9" style="enable-background:new 0 0 200 193.9;" xml:space="preserve">
<style type="text/css">
	.st0{fill:#1DC100;}
</style>
<path class="st0" d="M99.8,187.9c-51.1,0-90.9-39.8-90.9-90.9S48.7,6.1,99.8,6.1s90.9,39.8,90.9,90.9S150.9,187.9,99.8,187.9z
	 M100.2,15c-46.5,0-82.3,35.9-82.3,82.3s35.9,82.2,82.3,82.2s82.2-35.9,82.2-82.2S146.6,15,100.2,15z M60.6,89.6l33,33
	c1.1,1.1,1.1,2.3,0,3.4l-4.5,4.5c-1.1,1.1-2.3,1.1-3.4,0l-33-33c-1.1-1.1-1.1-2.3,0-3.4l4.5-4.5C58.3,88.4,59.5,88.4,60.6,89.6z
	 M145.3,61.2l4.5,4.5c1.1,1.1,1.1,2.3,0,3.4L89,130.5c-1.1,1.1-2.3,1.1-3.4,0l-4.5-5.1c-1.1-1.1-1.1-2.3,0-3.4l61.4-60.8
	C143,60.6,144.7,60.6,145.3,61.2z"/>
</svg>
