<?xml version="1.0" encoding="utf-8"?>
<!-- Generator: Adobe Illustrator 21.0.0, SVG Export Plug-In . SVG Version: 6.00 Build 0)  -->
<svg version="1.1" id="图层_1" xmlns="http://www.w3.org/2000/svg" xmlns:xlink="http://www.w3.org/1999/xlink" x="0px" y="0px"
	 viewBox="0 0 200 200" style="enable-background:new 0 0 200 200;" xml:space="preserve">
<style type="text/css">
	.st0{fill:#E81313;}
</style>
<path class="st0" d="M100,0C44.8,0,0,44.8,0,100s44.8,100,100,100s100-44.8,100-100S155.2,0,100,0z M100.2,192.3
	C49.4,192.3,8,151,8,100.2S49.4,8,100.2,8s92.2,41.3,92.2,92.2S150.9,192.3,100.2,192.3z M107.4,100l33.1-33.1
	c2.1-2.1,2.1-5.4,0-7.4c-2.1-2.1-5.4-2.1-7.4,0L100,92.6L66.9,59.4c-2.1-2.1-5.4-2.1-7.4,0c-2.1,2.1-2.1,5.4,0,7.4L92.6,100
	l-33.1,33.1c-2.1,2.1-2.1,5.4,0,7.4c1,1,2.4,1.6,3.7,1.6s2.7-0.5,3.7-1.6l33.1-33.1l33.1,33.1c1,1,2.4,1.6,3.7,1.6s2.7-0.5,3.7-1.6
	c2.1-2.1,2.1-5.4,0-7.4L107.4,100z"/>
</svg>
