<?xml version="1.0" encoding="utf-8"?>
<!-- Generator: Adobe Illustrator 21.0.0, SVG Export Plug-In . SVG Version: 6.00 Build 0)  -->
<svg version="1.1" id="图层_1" xmlns="http://www.w3.org/2000/svg" xmlns:xlink="http://www.w3.org/1999/xlink" x="0px" y="0px"
	 viewBox="0 0 200 200" style="enable-background:new 0 0 200 200;" xml:space="preserve">
<style type="text/css">
	.st0{fill:#E81313;}
</style>
<path class="st0" d="M99.9,12.3c-48.2,0-87.4,39.2-87.4,87.4s39.2,87.4,87.4,87.4s87.4-39.2,87.4-87.4S148.1,12.3,99.9,12.3z
	 M99.9,179.9c-44.2,0-80.1-36-80.1-80.2s36-80.2,80.2-80.2s80.2,36,80.2,80.2S144.1,179.9,99.9,179.9z M101.7,148.9
	c-1.9,0-3.9-0.5-5.6-1.6l-24.9-22H50.7c-6,0-10.9-4.9-10.9-10.9V85.2c0-6,4.9-10.9,10.9-10.9h20.5l24.9-22c3.4-2.1,7.6-2.1,11-0.1
	c3.5,2,5.5,5.5,5.5,9.5v76.3c0,4-2.1,7.5-5.5,9.5C105.4,148.4,103.5,148.9,101.7,148.9L101.7,148.9z M50.7,81.6
	c-2,0-3.7,1.6-3.7,3.7v29.1c0,2,1.6,3.7,3.7,3.7h23.2l26.4,23.4c1.1,0.6,2.6,0,3.1-0.4c0.5-0.3,1.9-1.2,1.9-3.2V61.7
	c0-1.9-1.3-2.9-1.9-3.2c-0.5-0.3-1.9-0.9-3.4-0.1L73.9,81.6H50.7z M136.3,138.1c-1.3,0-2.5-0.7-3.1-1.8c-1-1.7-0.4-4,1.3-5
	c5.5-3.2,10.1-7.8,13.3-13.3c4.8-8.4,6.1-18.2,3.6-27.6c-2.5-9.4-8.5-17.3-16.9-22.1c-1.7-1-2.3-3.2-1.3-5c1-1.7,3.2-2.4,5-1.3
	c10.1,5.8,17.2,15.2,20.3,26.6c3,11.3,1.5,23.1-4.3,33.1c-3.8,6.6-9.4,12.2-16,16C137.6,138,137,138.1,136.3,138.1L136.3,138.1z
	 M125.4,119.2c-1.2,0-2.5-0.7-3.1-1.8c-1-1.7-0.4-4,1.3-5c2.2-1.3,4.1-3.1,5.3-5.3c4-7,1.6-15.9-5.3-19.9c-1.7-1-2.3-3.2-1.3-5
	c1-1.7,3.2-2.3,5-1.3c5,2.9,8.6,7.6,10.2,13.3s0.8,11.5-2.1,16.6c-1.9,3.3-4.7,6.1-8,8C126.7,119,126,119.2,125.4,119.2L125.4,119.2
	z"/>
</svg>
